<?xml version="1.0" encoding="UTF-8"?>
<svg width="441px" height="107px" viewBox="0 0 441 107" version="1.1" xmlns="http://www.w3.org/2000/svg" xmlns:xlink="http://www.w3.org/1999/xlink">
    <title>logo-lib-polinema-light</title>
    <g id="logo-lib-polinema-light" stroke="none" stroke-width="1" fill="none" fill-rule="evenodd">
        <path d="M125.930393,98 L125.930393,91.3522791 L129.80823,91.3522791 C134.193879,91.3522791 136.363622,88.7024236 136.363622,85.2123701 C136.363622,81.7315496 134.212345,79.0909271 129.817463,79.0909271 L123.077413,79.0909271 L123.077413,98 L125.930393,98 Z M129.549708,88.9332473 L125.930393,88.9332473 L125.930393,81.5376577 L129.512776,81.5376577 C132.338057,81.5376577 133.492176,83.0703267 133.492176,85.2123701 C133.492176,87.3544136 132.338057,88.9332473 129.549708,88.9332473 Z M155.498022,98.2585225 C160.391484,98.2585225 164.010798,94.593043 164.010798,88.5454636 C164.010798,82.4978841 160.391484,78.8324046 155.498022,78.8324046 C150.586095,78.8324046 146.976013,82.4978841 146.976013,88.5454636 C146.976013,94.5838101 150.586095,98.2585225 155.498022,98.2585225 Z M155.498022,95.6548318 C152.238793,95.6548318 149.810528,93.1527035 149.810528,88.5454636 C149.810528,83.9382236 152.238793,81.4360953 155.498022,81.4360953 C158.748019,81.4360953 161.185517,83.9382236 161.185517,88.5454636 C161.185517,93.1527035 158.748019,95.6548318 155.498022,95.6548318 Z M186.866079,98 L186.866079,95.5440364 L178.297906,95.5440364 L178.297906,79.0909271 L175.444925,79.0909271 L175.444925,98 L186.866079,98 Z M200.857727,98 L200.857727,79.0909271 L198.004747,79.0909271 L198.004747,98 L200.857727,98 Z M215.754197,98 L215.754197,84.1321155 L215.929623,84.1321155 L225.541119,98 L228.163276,98 L228.163276,79.0909271 L225.337994,79.0909271 L225.337994,92.9772775 L225.162568,92.9772775 L215.541839,79.0909271 L212.901216,79.0909271 L212.901216,98 L215.754197,98 Z M252.172674,98 L252.172674,95.5440364 L243.059757,95.5440364 L243.059757,89.7549795 L251.443272,89.7549795 L251.443272,87.3082488 L243.059757,87.3082488 L243.059757,81.5468907 L252.061879,81.5468907 L252.061879,79.0909271 L240.206777,79.0909271 L240.206777,98 L252.172674,98 Z M266.487476,98 L266.487476,84.3075415 L266.662902,84.3075415 L272.239602,97.9723012 L274.49244,97.9723012 L280.06914,84.3167744 L280.244566,84.3167744 L280.244566,98 L282.959052,98 L282.959052,79.0909271 L279.496697,79.0909271 L273.476816,93.7897767 L273.255226,93.7897767 L267.235345,79.0909271 L263.77299,79.0909271 L263.77299,98 L266.487476,98 Z M296.599856,98 L298.33565,92.9957434 L305.722006,92.9957434 L307.448567,98 L310.476973,98 L303.672292,79.0909271 L300.376131,79.0909271 L293.57145,98 L296.599856,98 Z M304.891041,90.5951775 L299.166615,90.5951775 L301.954965,82.5255829 L302.102692,82.5255829 L304.891041,90.5951775 Z" id="POLINEMA" fill="#FF9900" fill-rule="nonzero"></path>
        <path d="M130.482235,30.2677554 C135.181805,30.2677554 138.321006,27.5071047 138.321006,23.370745 L138.321006,11.0909271 L134.323141,11.0909271 L134.323141,23.029126 C134.323141,25.1896353 132.808938,26.7500031 130.482235,26.7500031 C128.164766,26.7500031 126.64133,25.1896353 126.64133,23.029126 L126.64133,11.0909271 L122.643464,11.0909271 L122.643464,23.370745 C122.643464,27.5071047 125.7642,30.2677554 130.482235,30.2677554 Z M153.494475,30 L153.494475,23.869324 L156.855268,23.869324 C161.203985,23.869324 163.733812,21.2748663 163.733812,17.4985915 C163.733812,13.7407826 161.25015,11.0909271 156.95683,11.0909271 L149.49661,11.0909271 L149.49661,30 L153.494475,30 Z M156.208961,20.6654919 L153.494475,20.6654919 L153.494475,14.3593899 L156.190496,14.3593899 C158.498732,14.3593899 159.615918,15.6150705 159.615918,17.4985915 C159.615918,19.3728795 158.498732,20.6654919 156.208961,20.6654919 Z M183.246764,30 L183.246764,14.3870888 L189.035821,14.3870888 L189.035821,11.0909271 L173.506006,11.0909271 L173.506006,14.3870888 L179.295063,14.3870888 L179.295063,30 L183.246764,30 Z" id="UPT" fill="#FFFFFF" fill-rule="nonzero"></path>
        <path d="M129.461995,68 L129.461995,58.803986 L134.503183,58.803986 C141.026259,58.803986 144.821,54.9122994 144.821,49.2478872 C144.821,43.6111738 141.095506,39.6363907 134.655527,39.6363907 L123.465197,39.6363907 L123.465197,68 L129.461995,68 Z M133.533724,53.9982378 L129.461995,53.9982378 L129.461995,44.5390849 L133.506025,44.5390849 C136.96838,44.5390849 138.644159,46.4226058 138.644159,49.2478872 C138.644159,52.0593192 136.96838,53.9982378 133.533724,53.9982378 Z M167.867141,68 L167.867141,63.0557576 L154.696343,63.0557576 L154.696343,56.2833919 L166.828434,56.2833919 L166.828434,51.3391494 L154.696343,51.3391494 L154.696343,44.5806331 L167.811743,44.5806331 L167.811743,39.6363907 L148.699545,39.6363907 L148.699545,68 L167.867141,68 Z M178.559598,68 L178.559598,57.9453221 L182.936015,57.9453221 L188.309589,68 L194.929611,68 L188.905114,56.9758628 C192.132029,55.5909209 193.918604,52.7794889 193.918604,48.9016517 C193.918604,43.2649384 190.19311,39.6363907 183.75313,39.6363907 L172.5628,39.6363907 L172.5628,68 L178.559598,68 Z M182.631327,53.1257244 L178.559598,53.1257244 L178.559598,44.5390849 L182.603629,44.5390849 C186.065983,44.5390849 187.741763,46.0763703 187.741763,48.9016517 C187.741763,51.7130837 186.065983,53.1257244 182.631327,53.1257244 Z M204.126333,68 L204.126333,58.803986 L209.167522,58.803986 C215.690598,58.803986 219.485339,54.9122994 219.485339,49.2478872 C219.485339,43.6111738 215.759845,39.6363907 209.319865,39.6363907 L198.129535,39.6363907 L198.129535,68 L204.126333,68 Z M208.198062,53.9982378 L204.126333,53.9982378 L204.126333,44.5390849 L208.170364,44.5390849 C211.632718,44.5390849 213.308498,46.4226058 213.308498,49.2478872 C213.308498,52.0593192 211.632718,53.9982378 208.198062,53.9982378 Z M235.12204,68.4016331 C242.171394,68.4016331 246.880196,64.260657 246.880196,58.0561174 L246.880196,39.6363907 L240.883398,39.6363907 L240.883398,57.5436889 C240.883398,60.7844529 238.612094,63.1250046 235.12204,63.1250046 C231.645836,63.1250046 229.360682,60.7844529 229.360682,57.5436889 L229.360682,39.6363907 L223.363884,39.6363907 L223.363884,58.0561174 C223.363884,64.260657 228.044987,68.4016331 235.12204,68.4016331 Z M262.29531,68.4016331 C269.22002,68.4016331 273.291749,65.0916221 273.305598,59.8980901 C273.291749,55.1754384 269.732448,52.6686936 264.802055,51.5607401 L262.253762,50.9513657 C259.788566,50.3835395 257.725002,49.4694779 257.76655,47.4336134 C257.76655,45.6054901 259.386932,44.2620965 262.323009,44.2620965 C265.189839,44.2620965 266.948715,45.5639419 267.170306,47.7936982 L272.917814,47.7936982 C272.834718,42.7386605 268.679892,39.248607 262.364557,39.248607 C256.146168,39.248607 251.58971,42.6832628 251.617409,47.8352465 C251.603559,52.0177709 254.553485,54.4137203 259.345384,55.5632221 L262.433805,56.3387895 C265.522225,57.0866581 267.239553,57.9730209 267.253402,59.8842407 C267.239553,61.9616535 265.272935,63.3742942 262.226063,63.3742942 C259.109944,63.3742942 256.866338,61.9339546 256.672446,59.0948238 L250.86954,59.0948238 C251.021884,65.2301163 255.412149,68.4016331 262.29531,68.4016331 Z M290.825821,68 L290.825821,44.5806331 L299.509406,44.5806331 L299.509406,39.6363907 L276.214684,39.6363907 L276.214684,44.5806331 L284.89827,44.5806331 L284.89827,68 L290.825821,68 Z M304.731343,68 L306.836454,61.5323215 L317.071175,61.5323215 L319.176286,68 L325.602416,68 L315.824727,39.6363907 L308.096751,39.6363907 L298.305212,68 L304.731343,68 Z M315.561588,56.851218 L308.35989,56.851218 L311.849944,46.1179186 L312.071534,46.1179186 L315.561588,56.851218 Z M334.979184,68 L334.979184,59.9396384 L337.929111,56.3387895 L345.698634,68 L352.872633,68 L342.22243,52.3363076 L352.747989,39.6363907 L345.56014,39.6363907 L335.353119,52.1424157 L334.979184,52.1424157 L334.979184,39.6363907 L328.982386,39.6363907 L328.982386,68 L334.979184,68 Z M360.739813,68 L362.844924,61.5323215 L373.079645,61.5323215 L375.184756,68 L381.610886,68 L371.833197,39.6363907 L364.105221,39.6363907 L354.313682,68 L360.739813,68 Z M371.570058,56.851218 L364.36836,56.851218 L367.858414,46.1179186 L368.080004,46.1179186 L371.570058,56.851218 Z M389.879701,68 L391.984813,61.5323215 L402.219533,61.5323215 L404.324645,68 L410.750775,68 L400.973085,39.6363907 L393.24511,39.6363907 L383.453571,68 L389.879701,68 Z M400.709946,56.851218 L393.508249,56.851218 L396.998302,46.1179186 L397.219893,46.1179186 L400.709946,56.851218 Z M420.127543,68 L420.127543,50.1480994 L420.335284,50.1480994 L432.675116,68 L437.854799,68 L437.854799,39.6363907 L431.885699,39.6363907 L431.885699,57.4744419 L431.63641,57.4744419 L419.393524,39.6363907 L414.130745,39.6363907 L414.130745,68 L420.127543,68 Z" id="PERPUSTAKAAN" fill="#FFFFFF" fill-rule="nonzero"></path>
        <g id="Group" transform="translate(1.000000, 1.000000)" fill-rule="nonzero">
            <g id="polinema-logo">
                <path d="M103.268,43.205 C103.334359,57.2031533 99.856343,70.9903402 93.158,83.282 C90.417709,88.3049864 87.3092088,93.118148 83.858,97.682 C83.6470231,97.9451503 83.3615998,98.138569 83.039,98.237 C77.825074,100.219928 72.4392203,101.717282 66.95,102.71 C63.117003,103.370336 59.2464388,103.790156 55.361,103.967 C51.4700997,104.142792 47.5715334,104.03149 43.697,103.634 C35.8421317,102.822227 28.1152958,101.057245 20.687,98.378 C20.3672087,98.2680595 20.0880386,98.0641712 19.886,97.793 C13.496,89.456 8.402,80.417 5.06,70.427 C3.55249189,65.930491 2.4304421,61.3138281 1.706,56.627 C1.19543715,53.2159098 0.866971631,49.7800403 0.722,46.334 C0.593,43.562 0.689,40.799 0.767,38.03 C0.792530251,37.7150393 0.908126943,37.4140713 1.1,37.163 C3.63297589,33.1948435 6.49505349,29.4466458 9.656,25.958 C17.108,17.762 25.949,11.468 35.909,6.701 C40.9131891,4.33110865 46.0925127,2.35024806 51.401,0.776 C51.802371,0.639148265 52.2347806,0.621435097 52.646,0.725 C64.1624264,3.68119961 74.9063885,9.08490094 84.146,16.568 C91.361,22.403 97.451,29.276 102.722,36.893 C103.007209,37.2714263 103.16006,37.7331419 103.157,38.207 C103.118,39.932 103.361,41.636 103.268,43.205 Z" id="Path" fill="#262261"></path>
                <path d="M51.956,104.645 C49.322,104.645 46.574,104.501 43.64,104.213 C36.011,103.469 28.436,101.738 20.489,98.924 C20.0598813,98.7779507 19.6853146,98.5048727 19.415,98.141 C12.602,89.258 7.715,80.249 4.496,70.604 C2.97793954,66.0741391 1.8478676,61.4233812 1.118,56.702 C0.604403526,53.2801485 0.274929168,49.8331858 0.131,46.376 C0.008,43.766 0.083,41.135 0.158,38.591 L0.173,38.027 C0.200579641,37.6034484 0.348356645,37.1965413 0.599,36.854 C3.15265663,32.858516 6.03568516,29.0833843 9.218,25.568 C16.418,17.651 25.31,11.126 35.654,6.176 C40.6847771,3.79174409 45.8922796,1.7998142 51.23,0.218 C51.7362425,0.0514401586 52.2794867,0.0327075985 52.796,0.164 C64.3853476,3.15298212 75.1986303,8.593383 84.506,16.118 C91.448,21.737 97.562,28.418 103.196,36.569 C103.55202,37.0483568 103.741643,37.6309228 103.736,38.228 C103.736,38.975 103.769,39.728 103.811,40.478 C103.878879,41.3903487 103.895827,42.3057611 103.862,43.22 C103.925853,57.3108838 100.425341,71.1890913 93.686,83.564 C90.9330114,88.6139866 87.8084004,93.4523202 84.338,98.039 C84.0592787,98.3927758 83.6810478,98.6550298 83.252,98.792 C78.0038708,100.793071 72.5803189,102.299613 67.052,103.292 C63.195552,103.959238 59.3007891,104.382081 55.391,104.558 C54.266,104.618 53.123,104.645 51.956,104.645 Z M52.127,1.26489646 C51.938408,1.26826497 51.7513547,1.29960904 51.572,1.358 C46.2927112,2.9204834 41.1423202,4.88936706 36.167,7.247 C25.967,12.131 17.189,18.566 10.097,26.369 C6.95477593,29.8342558 4.10785492,33.5562262 1.586,37.496 C1.45695632,37.6588169 1.37498906,37.8538782 1.349,38.06 L1.334,38.624 C1.259,41.147 1.187,43.757 1.304,46.319 C1.44850832,49.7338417 1.7739651,53.1386204 2.279,56.519 C3.0002868,61.1740514 4.11528683,65.7595016 5.612,70.226 C8.795,79.742 13.616,88.637 20.348,97.415 C20.4782206,97.5957305 20.6618337,97.7310796 20.873,97.802 C28.73,100.58 36.212,102.302 43.745,103.028 C47.5901557,103.429288 51.4598612,103.543605 55.322,103.37 C59.1852201,103.20139 63.0339054,102.788566 66.845,102.134 C72.2996817,101.152354 77.6508739,99.6639028 82.829,97.688 C83.0453198,97.6300026 83.2388848,97.5075858 83.384,97.337 C86.816896,92.7955403 89.909325,88.0064868 92.636,83.009 C99.2713449,70.7938861 102.727385,57.1059027 102.686,43.205 L102.686,43.169 C102.719131,42.2937439 102.702416,41.4173086 102.635,40.544 C102.593,39.785 102.548,38.999 102.56,38.21 C102.561447,37.8601034 102.445221,37.5198793 102.23,37.244 C96.662,29.195 90.623,22.586 83.768,17.042 C74.5930503,9.62333448 63.9331365,4.2596178 52.508,1.313 C52.3838052,1.2795881 52.2556012,1.26343641 52.127,1.26489646 L52.127,1.26489646 Z" id="Shape" fill="#FFFFFF"></path>
                <path d="M87.149,51.383 L87.062,51.341 L87.062,51.164 C87.062,51.164 86.162,50.888 84.878,50.645 C84.578,50.582 84.278,50.531 83.978,50.489 C83.060708,50.3397667 82.1323035,50.2695091 81.203,50.279 C80.987,50.279 80.798,50.279 80.651,50.279 C79.8822463,46.7033326 78.3974106,43.3203564 76.286,40.334 C78.452,38.468 80.102,35.036 80.102,35.036 L72.98,27.971 C70.58,29.072 68.381,31.271 67.502,32.222 C64.4895788,30.4230304 61.184227,29.1679107 57.737,28.514 C58.145,23.921 56.762,21.116 56.762,21.116 L47.204,21.116 C47.204,21.116 45.821,23.921 46.226,28.514 C42.7781535,29.1721763 39.4728522,30.4313387 36.461,32.234 C35.585,31.28 33.401,29.084 30.983,27.983 L23.864,35.048 C23.864,35.048 25.511,38.477 27.686,40.334 C25.5729668,43.3164529 24.0841914,46.6950239 23.309,50.267 C23.162,50.267 22.976,50.267 22.757,50.267 C21.8276965,50.2575091 20.899292,50.3277667 19.982,50.477 C19.682,50.519 19.382,50.57 19.082,50.633 C17.81,50.876 16.901,51.152 16.901,51.152 L16.901,51.329 L16.814,51.371 L16.856,56.252 L16.814,61.136 L16.901,61.178 L16.901,61.355 C16.901,61.355 17.825,61.634 19.112,61.88 C19.388,61.934 19.664,61.982 19.937,62.021 C20.869116,62.1736113 21.8124984,62.246874 22.757,62.24 C23.057,62.24 23.3,62.24 23.459,62.24 C24.3101546,65.7438828 25.8489398,69.0437562 27.986,71.948 C25.676,73.748 23.879,77.483 23.879,77.483 L30.986,84.548 C33.929,83.21 36.527,80.243 36.842,79.877 C39.7700512,81.5669427 42.9632244,82.7486602 46.286,83.372 C45.686,88.34 47.186,91.403 47.186,91.403 L56.729,91.403 C56.729,91.403 58.229,88.34 57.629,83.372 C60.9556875,82.7491227 64.1528827,81.5674183 67.085,79.877 C67.385,80.243 69.995,83.21 72.938,84.548 L80.06,77.483 C80.06,77.483 78.26,73.739 75.953,71.948 C78.0854737,69.0462452 79.6220437,65.7508277 80.474,62.252 C80.633,62.252 80.876,62.252 81.179,62.252 C82.1225024,62.258762 83.0648789,62.1854995 83.996,62.033 C84.272,61.994 84.548,61.946 84.821,61.892 C86.108,61.646 87.035,61.367 87.035,61.367 L87.035,61.19 L87.122,61.148 L87.08,56.264 L87.149,51.383 Z" id="Path" fill="#F6921E"></path>
                <path d="M56.747,91.7330627 L47.204,91.7330627 C47.0769349,91.7354808 46.9599417,91.6641149 46.904,91.55 C46.841,91.424 45.404,88.466 45.926,83.639 C42.7597499,83.0141533 39.7141198,81.885842 36.905,80.297 C36.203,81.083 33.8,83.63 31.118,84.848 C30.9934668,84.9066089 30.8454963,84.8801426 30.749,84.782 L23.627,77.72 C23.5274982,77.6203487 23.502196,77.4685356 23.564,77.342 C23.636,77.192 25.298,73.763 27.518,71.888 C25.5012498,69.0884506 24.0314827,65.9331334 23.186,62.588 L22.736,62.588 C21.776426,62.5955653 20.8179543,62.5212962 19.871,62.366 C19.586,62.324 19.301,62.276 19.031,62.222 C17.747,61.976 16.829,61.7 16.79,61.688 C16.6546808,61.6494089 16.5592234,61.5285768 16.553,61.388 C16.4978928,61.324714 16.4670595,61.2439095 16.466,61.16 L16.508,56.276 L16.466,51.401 C16.466,51.3168873 16.4969492,51.2357156 16.553,51.173 C16.5610064,51.0330936 16.6557457,50.9131705 16.79,50.873 C16.826,50.873 17.732,50.591 19.007,50.345 C19.307,50.288 19.607,50.234 19.925,50.189 C20.8602746,50.0377973 21.8066114,49.9655426 22.754,49.973 L23.03,49.973 C23.8050388,46.5493028 25.2309028,43.3064806 27.23,40.421 C25.151,38.504 23.63,35.354 23.558,35.216 C23.496196,35.0894644 23.5214982,34.9376513 23.621,34.838 L30.752,27.734 C30.8493536,27.6374952 30.9962304,27.6112246 31.121,27.668 C33.446,28.727 35.561,30.782 36.521,31.799 C39.4191825,30.1034152 42.5793562,28.9020018 45.872,28.244 C45.545,23.789 46.85,21.083 46.907,20.969 C46.9626516,20.8542337 47.0794579,20.7818139 47.207,20.7829277 L56.75,20.7829277 C56.8779598,20.7803041 56.9955149,20.8531883 57.05,20.969 C57.107,21.083 58.412,23.789 58.085,28.244 C61.3776438,28.9020018 64.5378175,30.1034152 67.436,31.799 C68.396,30.782 70.511,28.727 72.836,27.668 C72.9608791,27.6121072 73.1072377,27.6382852 73.205,27.734 L80.324,34.799 C80.4228587,34.8988127 80.4491853,35.0495923 80.39,35.177 C80.324,35.315 78.797,38.477 76.718,40.382 C78.7184079,43.2667471 80.1443878,46.5098327 80.918,49.934 L81.218,49.934 C82.1613875,49.9271159 83.1036903,49.9993691 84.035,50.15 C84.35,50.195 84.662,50.249 84.956,50.309 C86.225,50.552 87.131,50.822 87.17,50.834 C87.3025577,50.875953 87.3955835,50.9952168 87.404,51.134 C87.4639974,51.1942386 87.4956177,51.2771056 87.4914434,51.362 L87.449,56.243 L87.4914434,61.121 C87.4928236,61.2054341 87.4616069,61.2872433 87.404,61.349 C87.3972985,61.4884255 87.3035983,61.608554 87.17,61.649 C87.131,61.649 86.213,61.949 84.923,62.183 C84.656,62.237 84.371,62.285 84.083,62.327 C83.133283,62.484472 82.1716342,62.5587539 81.209,62.549 L80.771,62.549 C79.9259549,65.8937477 78.4572522,69.0489648 76.442,71.849 C78.662,73.724 80.324,77.153 80.396,77.303 C80.4551853,77.4304077 80.4288587,77.5811873 80.33,77.681 L73.211,84.743 C73.1140682,84.8403138 72.9666544,84.8666805 72.842,84.809 C70.16,83.591 67.742,81.044 67.052,80.258 C64.2428802,81.846842 61.1972501,82.9751533 58.031,83.6 C58.544,88.427 57.116,91.385 57.053,91.511 C57.010014,91.6435857 56.8863796,91.7330627 56.747,91.7330627 L56.747,91.7330627 Z M47.417,91.073 L56.531,91.073 C56.831,90.35 57.83,87.539 57.329,83.411 C57.3086768,83.2386094 57.4253804,83.079945 57.596,83.048 C60.8853818,82.4326339 64.0463394,81.2629985 66.944,79.589 C67.0823417,79.5102424 67.2570776,79.5404127 67.361,79.661 C67.637,79.985 70.097,82.796 72.896,84.161 L79.682,77.426 C79.271,76.622 77.687,73.7 75.782,72.218 C75.6409494,72.1081579 75.6130158,71.9059719 75.719,71.762 C77.8318036,68.8954594 79.3505341,65.6356456 80.186,62.174 C80.2220075,62.0259768 80.3546603,61.9218381 80.507,61.922 L80.507,61.922 C80.657,61.922 80.897,61.922 81.2,61.922 C82.1293322,61.9288237 83.0575955,61.8575732 83.975,61.709 C84.254,61.667 84.524,61.619 84.785,61.568 C85.685,61.397 86.393,61.211 86.741,61.115 C86.7534907,61.0599451 86.7804126,61.0092077 86.819,60.968 L86.786,56.267 L86.828,51.563 C86.7894126,51.5217923 86.7624907,51.4710549 86.75,51.416 C86.408,51.32 85.7,51.134 84.824,50.969 C84.539,50.909 84.242,50.858 83.924,50.816 C83.024764,50.667849 82.1142989,50.5985854 81.203,50.609 C80.978,50.609 80.792,50.609 80.648,50.609 L80.648,50.609 C80.4929773,50.6081982 80.3594122,50.4995986 80.327,50.348 C79.5634679,46.8186271 78.0928958,43.4804997 76.004,40.535 C75.9055277,40.3960837 75.9289192,40.2050527 76.058,40.094 C77.858,38.555 79.292,35.879 79.682,35.114 L72.896,28.379 C70.601,29.489 68.531,31.586 67.73,32.456 C67.6237874,32.5694594 67.4532155,32.5943604 67.319,32.516 C64.3405158,30.735225 61.071532,29.4932346 57.662,28.847 C57.4956239,28.8166492 57.3798417,28.6644411 57.395,28.496 C57.728,24.71 56.813,22.142 56.531,21.455 L47.417,21.455 C47.135,22.142 46.217,24.71 46.556,28.496 C46.5711583,28.6644411 46.4553761,28.8166492 46.289,28.847 C42.8791772,29.4922047 39.6100177,30.7342619 36.632,32.516 C36.4968604,32.5948211 36.3252027,32.5699432 36.218,32.456 C35.42,31.586 33.347,29.489 31.052,28.379 L24.266,35.111 C24.659,35.876 26.108,38.555 27.893,40.091 C28.0207669,40.2027519 28.0440286,40.3927221 27.947,40.532 C25.8561702,43.4767612 24.3844891,46.8150889 23.621,50.345 C23.5896288,50.4972333 23.4554317,50.6063468 23.3,50.606 L23.3,50.606 C23.156,50.606 22.973,50.606 22.757,50.606 C21.8428354,50.5956401 20.9294724,50.6638914 20.027,50.81 C19.727,50.855 19.427,50.906 19.127,50.963 C18.251,51.131 17.543,51.317 17.198,51.413 C17.1853742,51.4673875 17.1596246,51.5178567 17.123,51.56 L17.165,56.258 L17.123,60.965 C17.1596246,61.0071433 17.1853742,61.0576125 17.198,61.112 C17.546,61.208 18.266,61.394 19.154,61.565 C19.415,61.616 19.688,61.664 19.964,61.706 C20.8784095,61.8543235 21.8036624,61.925574 22.73,61.919 C23.03,61.919 23.282,61.919 23.432,61.919 L23.432,61.919 C23.5843397,61.9188381 23.7169925,62.0229768 23.753,62.171 C24.5921779,65.6285851 26.1106319,68.884746 28.22,71.75 C28.3276652,71.8935411 28.2995519,72.0970284 28.157,72.206 C26.246,73.688 24.665,76.61 24.257,77.414 L31.043,84.149 C33.845,82.793 36.302,79.982 36.578,79.649 C36.6825296,79.5294896 36.8564474,79.4994606 36.995,79.577 C39.8926606,81.2509985 43.0536182,82.4206339 46.343,83.036 C46.5136196,83.067945 46.6303232,83.2266094 46.61,83.399 C46.118,87.551 47.12,90.353 47.417,91.073 Z" id="Shape" fill="#FFFFFF"></path>
                <ellipse id="Oval" fill="#2E3191" cx="51.977" cy="55.94" rx="23.328" ry="22.284"></ellipse>
                <path d="M51.986,78.554 C38.942,78.554 28.328,68.402 28.328,55.943 C28.328,43.484 38.942,33.338 51.986,33.329 L51.986,33.329 C65.033,33.329 75.647,43.481 75.647,55.943 C75.647,68.405 65.021,78.548 51.986,78.554 Z M51.986,33.989 C39.305,33.989 28.988,43.844 28.988,55.943 C28.988,68.042 39.293,77.888 51.986,77.8940027 C64.679,77.9 74.984,68.039 74.984,55.943 C74.984,43.847 64.655,33.998 51.986,33.989 Z" id="Shape" fill="#FFFFFF"></path>
                <polygon id="Path" fill="#FFF100" points="51.989 78.467 51.962 78.467 35.792 78.467 35.792 81.284 51.962 81.284 51.989 81.284 68.159 81.284 68.159 78.467"></polygon>
                <path d="M68.156,81.614 L35.786,81.614 C35.6984786,81.614 35.6145418,81.5792322 35.5526548,81.5173452 C35.4907678,81.4554582 35.4559863,81.3715214 35.4559863,81.284 L35.4559863,78.467 C35.4551996,78.3789599 35.4896137,78.2942504 35.5515877,78.231713 C35.6135616,78.1691756 35.6979563,78.134 35.786,78.134 L68.156,78.134 C68.338254,78.134 68.4860137,78.281746 68.4860137,78.464 L68.4860137,81.281 C68.4868004,81.3690401 68.4523863,81.4537496 68.3904123,81.516287 C68.3284384,81.5788244 68.2440437,81.614 68.156,81.614 Z M36.122,80.954 L67.826,80.954 L67.826,78.797 L36.122,78.797 L36.122,80.954 Z" id="Shape" fill="#231F20"></path>
                <path d="M51.986,76.376 C40.199,76.376 30.611,67.202 30.611,55.943 C30.611,44.684 40.211,35.516 51.986,35.507 L51.986,35.507 C63.773,35.507 73.364,44.684 73.364,55.943 C73.364,67.202 63.761,76.367 51.986,76.376 Z M51.986,36.176 C40.565,36.176 31.286,45.056 31.286,55.952 C31.286,66.848 40.586,75.716 51.986,75.7250068 C63.386,75.734 72.686,66.839 72.686,55.934 C72.686,45.029 63.386,36.176 51.986,36.167 L51.986,36.176 Z" id="Shape" fill="#FFFFFF"></path>
                <path d="M52.091,76.376 L51.857,76.376 C49.211,76.376 46.031,74.732 43.349,71.975 C39.317,67.829 37.1,61.982 37.265,55.934 C37.634,42.605 45.965,35.507 51.857,35.507 L52.091,35.507 C57.974,35.507 66.314,42.605 66.683,55.934 C66.848,61.982 64.631,67.829 60.599,71.975 C57.92,74.732 54.737,76.376 52.091,76.376 Z M51.971,75.713 L52.091,75.713 C54.563,75.713 57.569,74.141 60.128,71.513 C64.028,67.493 66.185,61.82 66.023,55.949 C65.819,48.536 63.164,43.826 60.974,41.183 C58.37,38.042 55.049,36.164 52.091,36.164 L51.857,36.164 C48.899,36.164 45.578,38.042 42.977,41.183 C40.784,43.826 38.132,48.536 37.925,55.949 C37.766,61.82 39.914,67.493 43.823,71.513 C46.382,74.141 49.385,75.713 51.857,75.713 L51.986,75.713 L51.971,75.713 Z" id="Shape" fill="#FFFFFF"></path>
                <path d="M52.091,76.376 L51.857,76.376 C50.291,76.376 48.335,74.042 46.757,70.286 C44.9030998,65.729864 43.9662142,60.8527579 44,55.934 C44,54.032 44.546,50.177 45.749,46.199 C46.775,42.791 48.635,38.183 51.641,35.579 C51.686,35.54 51.731,35.507 51.776,35.471 C51.8936606,35.3839874 52.0543394,35.3839874 52.172,35.471 C52.217,35.507 52.262,35.54 52.307,35.579 C55.307,38.183 57.173,42.779 58.202,46.199 C59.402,50.177 59.948,54.032 59.948,55.934 C59.9815769,60.8489588 59.0478456,65.7225061 57.2,70.277 C55.613,74.042 53.657,76.376 52.091,76.376 Z M51.974,75.713 L52.091,75.713 C54.491,75.713 59.291,67.163 59.291,55.94 C59.291,52.139 57.113,40.739 51.977,36.17 C46.841,40.739 44.663,52.139 44.663,55.94 C44.663,67.163 49.463,75.713 51.863,75.713 L51.986,75.713 L51.974,75.713 Z" id="Shape" fill="#FFFFFF"></path>
                <polygon id="Path" fill="#FFF100" points="51.989 79.511 51.962 79.511 33.239 79.511 33.239 81.284 51.962 81.284 51.989 81.284 70.712 81.284 70.712 79.511"></polygon>
                <path d="M70.709,81.614 L33.239,81.614 C33.056746,81.614 32.909,81.466254 32.909,81.284 L32.909,79.511 C32.909,79.328746 33.056746,79.181 33.239,79.181 L70.709,79.181 C70.7965214,79.181 70.8804582,79.2157678 70.9423452,79.2776548 C71.0042322,79.3395418 71.039,79.4234786 71.039,79.511 L71.039,81.284 C71.039,81.3715214 71.0042322,81.4554582 70.9423452,81.5173452 C70.8804582,81.5792322 70.7965214,81.614 70.709,81.614 L70.709,81.614 Z M33.569,80.954 L70.379,80.954 L70.379,79.841 L33.569,79.841 L33.569,80.954 Z" id="Shape" fill="#231F20"></path>
                <polygon id="Path" fill="#FFF100" points="51.977 81.284 29.636 81.284 29.636 83.054 51.977 83.054 74.315 83.054 74.315 81.284"></polygon>
                <path d="M74.315,83.3840138 L29.636,83.3840138 C29.5487556,83.3848004 29.4648091,83.3507024 29.4028343,83.2892911 C29.3408595,83.2278797 29.306,83.1442481 29.306,83.057 L29.306,81.284 C29.306,81.1964786 29.3407678,81.1125418 29.4026548,81.0506548 C29.4645418,80.9887678 29.5484786,80.954 29.636,80.954 L74.315,80.954 C74.4025214,80.954 74.4864582,80.9887678 74.5483452,81.0506548 C74.6102322,81.1125418 74.645,81.1964786 74.645,81.284 L74.645,83.057 C74.645,83.1442481 74.6101405,83.2278797 74.5481657,83.2892911 C74.4861909,83.3507024 74.4022444,83.3848004 74.315,83.3840138 Z M29.966,82.724 L73.985,82.724 L73.985,81.614 L29.966,81.614 L29.966,82.724 Z" id="Shape" fill="#231F20"></path>
                <polygon id="Path" fill="#FFF100" points="51.989 82.571 51.962 82.571 25.586 82.571 25.586 84.341 51.962 84.341 51.989 84.341 78.365 84.341 78.365 82.571"></polygon>
                <path d="M78.365,84.674 L25.586,84.674 C25.403746,84.674 25.256,84.526254 25.256,84.344 L25.256,82.571 C25.256,82.4834786 25.2907678,82.3995418 25.3526548,82.3376548 C25.4145418,82.2757678 25.4984786,82.241 25.586,82.241 L78.365,82.241 C78.4525214,82.241 78.5364582,82.2757678 78.5983452,82.3376548 C78.6602322,82.3995418 78.695,82.4834786 78.695,82.571 L78.695,84.344 C78.6933714,84.5255751 78.5465751,84.6723714 78.365,84.674 L78.365,84.674 Z M25.916,84.014 L78.035,84.014 L78.035,82.901 L25.916,82.901 L25.916,84.014 Z" id="Shape" fill="#231F20"></path>
                <polygon id="Path" fill="#FFF100" points="51.989 83.663 51.962 83.663 22.589 83.663 22.589 85.433 51.962 85.433 51.989 85.433 81.365 85.433 81.365 83.663"></polygon>
                <path d="M81.362,85.763 L22.586,85.763 C22.4984786,85.763 22.4145418,85.7282322 22.3526548,85.6663452 C22.2907678,85.6044582 22.256,85.5205214 22.256,85.433 L22.256,83.663 C22.256,83.5754786 22.2907678,83.4915418 22.3526548,83.4296548 C22.4145418,83.3677678 22.4984786,83.333 22.586,83.333 L81.362,83.333 C81.544254,83.333 81.692,83.480746 81.692,83.663 L81.692,85.433 C81.692,85.615254 81.544254,85.763 81.362,85.763 Z M22.916,85.103 L81.032,85.103 L81.032,83.993 L22.916,83.993 L22.916,85.103 Z" id="Shape" fill="#231F20"></path>
                <polygon id="Path" fill="#FFF100" points="51.989 84.794 51.962 84.794 19.859 84.794 19.859 86.564 51.962 86.564 51.989 86.564 84.092 86.564 84.092 84.794"></polygon>
                <path d="M84.086,86.897 L19.859,86.897 C19.6762618,86.8953536 19.529,86.7467456 19.529,86.564 L19.529,84.794 C19.529,84.7064786 19.5637678,84.6225418 19.6256548,84.5606548 C19.6875418,84.4987678 19.7714786,84.464 19.859,84.464 L84.086,84.464 C84.1735214,84.464 84.2574582,84.4987678 84.3193452,84.5606548 C84.3812322,84.6225418 84.416,84.7064786 84.416,84.794 L84.416,86.564 C84.416,86.7467456 84.2687382,86.8953536 84.086,86.897 Z M20.186,86.234 L83.762,86.234 L83.762,85.124 L20.186,85.124 L20.186,86.234 Z" id="Shape" fill="#231F20"></path>
                <path d="M51.986,51.812 C44.975,51.812 38.186,50.786 32.312,48.848 C32.2252629,48.8202831 32.1543786,48.7570325 32.117,48.674 C32.0795225,48.5899902 32.0795225,48.4940098 32.117,48.41 C33.7069948,44.6063499 36.4010048,41.3668498 39.851,39.11 C47.2261573,34.2857643 56.7578427,34.2857643 64.133,39.11 C67.5829952,41.3668498 70.2770052,44.6063499 71.867,48.41 C71.9044775,48.4940098 71.9044775,48.5899902 71.867,48.674 C71.8277418,48.7567647 71.7561231,48.8197023 71.669,48.848 C65.786,50.786 58.985,51.812 51.986,51.812 Z M32.861,48.335 C38.576,50.177 45.182,51.152 51.986,51.152 C58.79,51.152 65.396,50.177 71.111,48.335 C67.886,40.934 60.404,36.173 51.986,36.1669943 C43.568,36.161 36.086,40.934 32.849,48.335 L32.861,48.335 Z" id="Shape" fill="#FFFFFF"></path>
                <path d="M51.986,40.658 C48.176,40.658 44.588,39.899 41.885,38.522 C41.7676907,38.4682421 41.6924773,38.3510403 41.6924773,38.222 C41.6924773,38.0929597 41.7676907,37.9757579 41.885,37.922 C48.2312736,34.6859082 55.7437264,34.6859082 62.09,37.922 C62.2073093,37.9757579 62.2825227,38.0929597 62.2825227,38.222 C62.2825227,38.3510403 62.2073093,38.4682421 62.09,38.522 C59.372,39.899 55.784,40.658 51.986,40.658 Z M42.776,38.234 C45.311,39.38 48.545,40.007 51.974,40.007 C55.403,40.007 58.637,39.38 61.172,38.234 C55.3469367,35.4901807 48.6010633,35.4901807 42.776,38.234 L42.776,38.234 Z" id="Shape" fill="#FFFFFF"></path>
                <path d="M51.986,46.865 C45.926,46.865 39.986,45.791 35.3,43.844 C35.2020444,43.8055034 35.1291832,43.7214328 35.105,43.619 C35.0778325,43.5141981 35.1023569,43.4027236 35.171,43.319 C39.3514269,38.368385 45.5024366,35.5134538 51.9819851,35.516343 C58.4615337,35.5192366 64.609993,38.3796561 68.786,43.334 C68.8554746,43.4173532 68.8790761,43.5297411 68.849,43.634 C68.8249658,43.735542 68.7534978,43.8192936 68.657,43.859 C63.962,45.791 58.034,46.865 51.986,46.865 Z M35.969,43.403 C40.523,45.203 46.19,46.205 51.986,46.205 C57.782,46.205 63.449,45.212 68.003,43.403 C63.9508235,38.8028461 58.1163793,36.1670303 51.986,36.1670303 C45.8556207,36.1670303 40.0211765,38.8028461 35.969,43.403 Z" id="Shape" fill="#FFFFFF"></path>
                <path d="M51.986,57.434 C44.8825387,57.4706976 37.8021232,56.6231841 30.908,54.911 C30.7527755,54.8709293 30.6481343,54.7259445 30.659,54.566 C31.041331,49.3573122 33.4455681,44.5046939 37.358,41.045 C45.7108796,33.6573827 58.2611204,33.6573827 66.614,41.045 C70.528758,44.5029127 72.9334954,49.3565406 73.313,54.566 C73.3241789,54.7250661 73.2210258,54.869732 73.067,54.911 C66.1718246,56.6230023 59.0904397,57.4705112 51.986,57.434 Z M31.34,54.338 C38.0963406,55.9923705 45.030147,56.8114906 51.986,56.777 C58.9427071,56.8122645 65.877479,55.9941569 72.635,54.341 C71.777,44.141 62.762,36.176 51.986,36.1669924 C41.21,36.158 32.186,44.135 31.328,54.341 L31.34,54.338 Z" id="Shape" fill="#FFFFFF"></path>
                <path d="M51.986,51.812 C44.975,51.812 38.186,50.786 32.312,48.848 C32.2252629,48.8202831 32.1543786,48.7570325 32.117,48.674 C32.0795225,48.5899902 32.0795225,48.4940098 32.117,48.41 C33.7069948,44.6063499 36.4010048,41.3668498 39.851,39.11 C47.2261573,34.2857643 56.7578427,34.2857643 64.133,39.11 C67.5829952,41.3668498 70.2770052,44.6063499 71.867,48.41 C71.9044775,48.4940098 71.9044775,48.5899902 71.867,48.674 C71.8277418,48.7567647 71.7561231,48.8197023 71.669,48.848 C65.786,50.786 58.985,51.812 51.986,51.812 Z M32.861,48.335 C38.576,50.177 45.182,51.152 51.986,51.152 C58.79,51.152 65.396,50.177 71.111,48.335 C67.886,40.934 60.404,36.173 51.986,36.1669943 C43.568,36.161 36.086,40.934 32.849,48.335 L32.861,48.335 Z" id="Shape" fill="#FFFFFF"></path>
                <path d="M51.986,76.376 C47.7447337,76.38739 43.5907408,75.1715109 40.025,72.875 C39.9127424,72.8046671 39.853423,72.6740233 39.8743521,72.5432163 C39.8952812,72.4124094 39.9924018,72.306796 40.121,72.275 C47.9164273,70.3710354 56.0555727,70.3710354 63.851,72.275 C63.9795982,72.306796 64.0767188,72.4124094 64.0976479,72.5432163 C64.118577,72.6740233 64.0592576,72.8046671 63.947,72.875 C60.3812592,75.1715109 56.2272663,76.38739 51.986,76.376 L51.986,76.376 Z M41.033,72.734 C47.7840351,76.7141436 56.1639649,76.7141436 62.915,72.734 C55.7118448,71.1059683 48.2361552,71.1059683 41.033,72.734 L41.033,72.734 Z" id="Shape" fill="#FFFFFF"></path>
                <path d="M51.986,76.3761078 C47.5718323,76.3898277 43.2560367,75.0725063 39.602,72.596 C36.0985478,70.2466022 33.4042726,66.874568 31.886,62.939 C31.8500581,62.8503132 31.855558,62.7502152 31.901,62.666 C31.9456477,62.5822638 32.0244692,62.5220529 32.117,62.501 C45.1886374,59.5329648 58.7593626,59.5329648 71.831,62.501 C71.9235308,62.5220529 72.0023523,62.5822638 72.047,62.666 C72.0918319,62.7502194 72.098386,62.8496233 72.065,62.939 C70.5487835,66.8731425 67.857842,70.2449373 64.358,72.596 C60.7075892,75.0707079 56.3961627,76.3879721 51.986,76.3761078 Z M32.654,63.056 C35.72,70.637 43.454,75.71 51.986,75.7160053 C60.518,75.722 68.255,70.637 71.321,63.056 C58.5871263,60.2279808 45.3878737,60.2279808 32.654,63.056 L32.654,63.056 Z" id="Shape" fill="#FFFFFF"></path>
                <path d="M51.986,76.376 C45.4683761,76.4238482 39.2761865,73.5321761 35.129,68.504 C35.0611121,68.4197848 35.0397296,68.3072452 35.072,68.204 C35.1066698,68.0981314 35.1924133,68.0169007 35.3,67.988 C46.2518324,65.2201901 57.7201676,65.2201901 68.672,67.988 C68.7799248,68.0174718 68.8663593,68.0982938 68.903,68.204 C68.9328396,68.3078127 68.9104722,68.4196497 68.843,68.504 C64.6963536,73.5328733 58.5038118,76.4247098 51.986,76.376 L51.986,76.376 Z M35.972,68.483 C40.0241079,73.0811047 45.8572036,75.7155647 51.986,75.7155647 C58.1147964,75.7155647 63.9478921,73.0811047 68,68.483 C57.4779443,65.9190118 46.4940557,65.9190118 35.972,68.483 L35.972,68.483 Z" id="Shape" fill="#FFFFFF"></path>
                <path d="M55.172,28.553 L54.335,26.882 L53.327,28.013 L51.986,22.082 L50.633,28.013 L49.625,26.882 L48.788,28.553 L47.423,63.236 C50.4493785,62.8000159 53.5226215,62.8000159 56.549,63.236 L55.172,28.553 Z" id="Path" fill="#FFF100"></path>
                <path d="M47.411,63.5690001 C47.3301241,63.5690001 47.2521004,63.5391189 47.192,63.485 C47.1179477,63.4188931 47.0772488,63.3231957 47.081,63.224 L48.446,28.541 C48.4487503,28.494029 48.460997,28.4481036 48.482,28.406 L49.316,26.732 C49.3647847,26.6335317 49.4593844,26.5658078 49.5683216,26.5513631 C49.6772588,26.5369184 49.7862391,26.5776482 49.859,26.66 L50.441,27.314 L51.641,22.01 C51.6764348,21.8613984 51.809232,21.7565441 51.962,21.7565441 C52.114768,21.7565441 52.2475652,21.8613984 52.283,22.01 L53.483,27.314 L54.065,26.66 C54.1413687,26.5771778 54.2533646,26.5368592 54.365,26.552 C54.4732912,26.5674052 54.567306,26.6345586 54.617,26.732 L55.454,28.406 C55.4754152,28.4477967 55.4867184,28.4940373 55.487,28.541 L56.852,63.224 C56.8579939,63.3227345 56.8185566,63.4187984 56.7449166,63.4848406 C56.6712765,63.5508828 56.5715019,63.5796678 56.474,63.563 C53.4805063,63.1309892 50.4404937,63.1309892 47.447,63.563 L47.411,63.5690001 Z M51.986,62.576 C53.3962843,62.5879809 54.804672,62.6821405 56.204,62.858 L54.845,28.634 L54.26,27.461 L53.576,28.229 C53.4928949,28.3201722 53.3661955,28.3579298 53.2467394,28.3271227 C53.1272833,28.2963156 53.0346468,28.2019925 53.006,28.082 L51.986,23.567 L50.954,28.085 C50.9270149,28.2058189 50.8341158,28.3010404 50.714,28.331 C50.5950323,28.3635657 50.4679269,28.3250842 50.387,28.232 L49.703,27.464 L49.103,28.637 L47.756,62.858 C49.1593023,62.6816747 50.5717103,62.5875142 51.986,62.576 L51.986,62.576 Z" id="Shape" fill="#231F20"></path>
                <path d="M54.257,62.576 L53.327,28.013 L51.986,22.082 L50.633,28.013 L49.706,62.576 L49.607,63.005 C50.318,62.951 51.14,62.909 51.986,62.909 C52.832,62.909 53.657,62.951 54.365,63.005 L54.257,62.576 Z" id="Path" fill="#FFF100"></path>
                <path d="M54.353,63.335 L54.326,63.335 C53.498,63.269 52.706,63.239 51.974,63.239 C51.242,63.239 50.45,63.269 49.622,63.335 C49.5173171,63.3417495 49.4154067,63.299656 49.346,63.221 C49.2738545,63.1390656 49.2468995,63.0267534 49.274,62.921 L49.364,62.528 L50.291,27.995 L50.291,27.929 L51.644,22.001 C51.6794348,21.8523984 51.812232,21.7475441 51.965,21.7475441 C52.117768,21.7475441 52.2505652,21.8523984 52.286,22.001 L53.642,27.929 L53.642,27.995 L54.584,62.534 L54.674,62.927 C54.696874,63.0250117 54.6737702,63.1281042 54.6112543,63.2069793 C54.5487385,63.2858545 54.4536455,63.3318889 54.353,63.332 L54.353,63.335 Z M51.986,62.576 C52.604,62.576 53.261,62.6 53.945,62.645 L53.945,62.585 L53.018,28.052 L51.986,23.567 L50.96,28.052 L50.036,62.585 L50.036,62.645 C50.702,62.6 51.359,62.579 51.986,62.576 Z" id="Shape" fill="#231F20"></path>
                <path d="M44.594,68.207 L44.453,69.44 C44.453,69.44 45.353,70.103 48.152,70.055 C50.951,70.007 50.42,67.265 50.42,67.265 L44.594,68.207 Z" id="Path" fill="#231F20"></path>
                <path d="M59.354,68.207 L59.486,69.434 C59.486,69.434 58.586,70.097 55.784,70.049 C52.982,70.001 53.516,67.259 53.516,67.259 L59.354,68.207 Z" id="Path" fill="#231F20"></path>
                <polygon id="Path" fill="#FFF100" points="51.989 68.738 51.962 68.738 48.155 68.738 48.155 71.621 51.962 71.621 51.989 71.621 55.799 71.621 55.799 68.738"></polygon>
                <path d="M55.796,71.954 L48.152,71.954 C47.9692618,71.9523536 47.822,71.8037456 47.822,71.621 L47.822,68.738 C47.822,68.555746 47.969746,68.408 48.152,68.408 L55.796,68.408 C55.8835214,68.408 55.9674582,68.4427678 56.0293452,68.5046548 C56.0912322,68.5665418 56.126,68.6504786 56.126,68.738 L56.126,71.621 C56.126,71.8037456 55.9787382,71.9523536 55.796,71.954 L55.796,71.954 Z M48.482,71.291 L55.466,71.291 L55.466,69.068 L48.482,69.068 L48.482,71.291 Z" id="Shape" fill="#231F20"></path>
                <polygon id="Path" fill="#FFF100" points="51.989 68.738 51.962 68.738 49.844 68.738 49.844 71.621 51.962 71.621 51.989 71.621 54.107 71.621 54.107 68.738"></polygon>
                <path d="M54.104,71.954 L49.844,71.954 C49.6612618,71.9523536 49.514,71.8037456 49.514,71.621 L49.514,68.738 C49.514,68.555746 49.661746,68.408 49.844,68.408 L54.104,68.408 C54.2867456,68.408 54.4353536,68.5552618 54.437,68.738 L54.437,71.621 C54.437,71.8049108 54.2879108,71.954 54.104,71.954 Z M50.186,71.291 L53.786,71.291 L53.786,69.068 L50.186,69.068 L50.186,71.291 Z" id="Shape" fill="#231F20"></path>
                <polygon id="Path" fill="#FFF100" points="44.798 77.234 40.238 77.879 40.238 72.266 44.798 71.621"></polygon>
                <path d="M40.238,78.209 C40.1504786,78.209 40.0665418,78.1742322 40.0046548,78.1123452 C39.9427678,78.0504582 39.9079996,77.9665214 39.9079996,77.879 L39.9079996,72.266 C39.9077469,72.1020926 40.0278355,71.9628409 40.19,71.939 L44.75,71.297 C44.8438113,71.2821562 44.9393799,71.3096184 45.011,71.372 C45.0839336,71.434072 45.1256688,71.5252306 45.1250079,71.621 L45.1250079,77.234 C45.1252531,77.3979074 45.0051645,77.5371591 44.843,77.561 L40.286,78.206 L40.238,78.209 Z M40.568,72.554 L40.568,77.498 L44.468,76.949 L44.468,72.002 L40.568,72.554 Z" id="Shape" fill="#231F20"></path>
                <polygon id="Path" fill="#FFF100" points="51.989 71.621 51.962 71.621 44.783 71.621 44.783 77.234 51.962 77.234 51.989 77.234 59.168 77.234 59.168 71.621"></polygon>
                <path d="M59.168,77.564 L44.786,77.564 C44.603746,77.564 44.456,77.416254 44.456,77.234 L44.456,71.621 C44.4576286,71.4394249 44.6044249,71.2926286 44.786,71.291 L59.186,71.291 C59.2735214,71.291 59.3574582,71.3257678 59.4193452,71.3876548 C59.4812322,71.4495418 59.5160004,71.5334786 59.5160004,71.621 L59.5160004,77.234 C59.5160004,77.3247313 59.4789075,77.4115157 59.4130706,77.4739472 C59.3472337,77.5363787 59.2585963,77.5689491 59.168,77.564 Z M45.11,76.904 L58.838,76.904 L58.838,71.954 L45.11,71.954 L45.11,76.904 Z" id="Shape" fill="#231F20"></path>
                <polygon id="Path" fill="#FFF100" points="59.153 77.234 63.713 77.879 63.713 72.266 59.153 71.621"></polygon>
                <path d="M63.713,78.209 L63.665,78.209 L59.108,77.564 C58.9446439,77.5415141 58.823,77.4018964 58.823,77.237 L58.823,71.621 C58.8239167,71.5255773 58.865365,71.4350456 58.937,71.372 C59.0086201,71.3096184 59.1041887,71.2821562 59.198,71.297 L63.758,71.939 C63.9266407,71.9557801 64.0557792,72.0965411 64.058,72.266 L64.058,77.879 C64.0578587,77.974594 64.0162714,78.0654294 63.944,78.128 C63.8797761,78.1828285 63.797401,78.2117133 63.713,78.209 L63.713,78.209 Z M59.483,76.949 L63.383,77.498 L63.383,72.554 L59.483,72.002 L59.483,76.949 Z" id="Shape" fill="#231F20"></path>
                <path d="M51.986,63.767 C49.2359094,63.8099499 46.4999024,64.169315 43.832,64.838 L43.832,69.638 C43.832,69.638 46.928,68.477 51.971,68.561 L52.001,68.561 C57.044,68.477 60.143,69.638 60.143,69.638 L60.143,64.838 C57.4740627,64.1694007 54.7370723,63.8100386 51.986,63.767 L51.986,63.767 Z" id="Path" fill="#FFF100"></path>
                <path d="M43.82,69.971 C43.7319844,69.9726456 43.6470881,69.9384065 43.5848408,69.8761592 C43.5225935,69.8139119 43.4883544,69.7290156 43.4899433,69.641 L43.4899433,64.841 C43.4894975,64.6895359 43.5921685,64.5571769 43.739,64.52 C49.1340517,63.076025 54.8139483,63.076025 60.209,64.52 C60.3564059,64.5569628 60.4600873,64.6890332 60.461,64.841 L60.461,69.641 C60.4601092,69.7499668 60.4064294,69.8517348 60.317,69.914 C60.2286896,69.9737647 60.1169431,69.9871742 60.017,69.95 C59.987,69.95 56.912,68.813 51.998,68.894 L51.971,68.894 C47.033,68.816 43.967,69.938 43.937,69.95 C43.8997911,69.9647338 43.8600103,69.9718739 43.82,69.971 L43.82,69.971 Z M44.15,65.099 L44.15,69.185 C45.185,68.87 47.954,68.168 51.965,68.234 L51.986,68.234 C54.624218,68.1514245 57.2595803,68.4721193 59.801,69.185 L59.801,65.099 C57.2412097,64.4762705 54.6200941,64.1402042 51.986,64.097 L51.986,64.097 C49.3447248,64.1365885 46.716251,64.472695 44.15,65.099 L44.15,65.099 Z" id="Shape" fill="#231F20"></path>
                <path d="M51.986,63.767 C50.3953002,63.7821438 48.8079266,63.9155112 47.237,64.166 L47.237,68.858 C48.8044152,68.6313418 50.3875113,68.5310189 51.971,68.558 L52.001,68.558 C53.5844887,68.5310189 55.1675848,68.6313418 56.735,68.858 L56.735,64.166 C55.1640734,63.9155112 53.5766998,63.7821438 51.986,63.767 L51.986,63.767 Z" id="Path" fill="#FFF100"></path>
                <path d="M47.225,69.188 C47.042746,69.188 46.895,69.040254 46.895,68.858 L46.895,64.166 C46.8960171,64.0025663 47.0154908,63.8640277 47.177,63.839 C50.3541606,63.2983118 53.5998394,63.2983118 56.777,63.839 C56.9385092,63.8640277 57.0579829,64.0025663 57.059,64.166 L57.059,68.858 C57.059,68.9544705 57.0174144,69.0462606 56.945,69.11 C56.872257,69.1725058 56.7757405,69.1999253 56.681,69.185 C55.136647,68.9592434 53.5765486,68.8589155 52.016,68.885 L51.959,68.885 C50.3934717,68.859023 48.8283982,68.9593482 47.279,69.185 L47.225,69.188 Z M52.502,68.228 C53.8061503,68.2254071 55.1090281,68.309593 56.402,68.48 L56.402,64.451 C54.9402361,64.228611 53.4645241,64.1103135 51.986,64.097 L51.986,64.097 C50.507484,64.1104949 49.0317849,64.2287914 47.57,64.451 L47.57,68.48 C49.0319282,68.2894251 50.5059462,68.207201 51.98,68.234 L51.986,68.234 L52.502,68.228 Z" id="Shape" fill="#231F20"></path>
                <path d="M13.043,48.734 L7.373,48.554 L7.433,46.718 C7.42851902,46.2618874 7.47073907,45.806514 7.559,45.359 C7.65735101,45.0349254 7.86247664,44.7536707 8.141,44.561 C8.46822871,44.3398214 8.85994107,44.2342385 9.254,44.261 C9.5585557,44.2613077 9.85836123,44.3365166 10.127,44.48 C10.345793,44.5993891 10.5321758,44.7703258 10.67,44.978 C10.7925865,45.1591759 10.8772828,45.3632633 10.919,45.578 C10.9716884,45.9756961 10.9867551,46.3774748 10.964,46.778 L10.94,47.525 L13.079,47.591 L13.043,48.734 Z M8.369,47.441 L9.977,47.492 L9.998,46.865 C10.0238438,46.563694 10.0036115,46.260209 9.938,45.965 C9.88868068,45.8184845 9.79546045,45.6906994 9.671,45.599 C9.54284641,45.5079599 9.390175,45.4577666 9.233,45.455 C9.04586722,45.4431305 8.86127362,45.5032307 8.717,45.623 C8.58049142,45.7391829 8.48655118,45.8975091 8.45,46.073 C8.40833421,46.3460302 8.38727474,46.621809 8.387,46.898 L8.369,47.441 Z" id="Shape" fill="#FFFFFF"></path>
                <path d="M10.553,43.217 C10.0747153,43.0773353 9.63043382,42.8403852 9.248,42.521 C9.01452957,42.3092272 8.81963095,42.0584982 8.672,41.78 C8.52912455,41.5153552 8.44135847,41.2245025 8.414,40.925 C8.38528483,40.5073108 8.44036419,40.0880957 8.576,39.692 C8.77434596,38.9696629 9.26763917,38.3642081 9.935,38.024 C11.4449655,37.4605118 13.1442011,38.0095338 14.039,39.35 C14.6616327,40.7493971 14.1301078,42.3931153 12.806,43.163 C12.0922834,43.4808726 11.2811259,43.5003145 10.553,43.217 L10.553,43.217 Z M10.88,42.083 C11.3681056,42.2807283 11.9122093,42.290349 12.407,42.11 C12.8041098,41.9402113 13.1052688,41.6027814 13.229,41.189 C13.3725858,40.7840769 13.3274629,40.3361492 13.106,39.968 C12.4388538,39.1398439 11.3477194,38.780439 10.319,39.05 C9.93386179,39.2399292 9.64213164,39.5778275 9.51041305,39.9865508 C9.37869446,40.3952742 9.41823235,40.8399296 9.62,41.219 C9.92098748,41.6532928 10.3718775,41.9610092 10.886,42.083 L10.88,42.083 Z" id="Shape" fill="#FFFFFF"></path>
                <polygon id="Path" fill="#FFFFFF" points="15.269 38.336 10.358 35.594 10.916 34.595 14.993 36.869 16.379 34.385 17.216 34.85"></polygon>
                <rect id="Rectangle" fill="#FFFFFF" transform="translate(15.602615, 32.305293) rotate(-55.000000) translate(-15.602615, -32.305293) " x="15.0296149" y="29.4702927" width="1.146" height="5.67"></rect>
                <polygon id="Path" fill="#FFFFFF" points="19.589 31.736 15.989 28.694 14.903 29.981 14.171 29.36 17.081 25.919 17.813 26.54 16.73 27.821 20.327 30.863"></polygon>
                <polygon id="Path" fill="#FFFFFF" points="21.782 29.216 17.921 25.061 21.002 22.199 21.656 22.901 19.415 24.983 20.27 25.904 22.355 23.969 23.006 24.668 20.921 26.606 21.971 27.737 24.293 25.58 24.941 26.282"></polygon>
                <polygon id="Path" fill="#FFFFFF" points="25.532 25.799 22.214 21.2 23.141 20.531 24.614 22.571 25.016 19.175 26.267 18.275 25.826 21.317 29.678 22.808 28.478 23.675 25.655 22.427 25.457 23.738 26.459 25.13"></polygon>
                <polygon id="Path" fill="#FFFFFF" points="30.017 22.637 27.302 17.657 28.28 17.123 32.132 19.34 30.32 16.013 31.253 15.503 33.968 20.483 32.957 21.035 29.18 18.881 30.95 22.127"></polygon>
                <rect id="Rectangle" fill="#FFFFFF" transform="translate(34.284205, 17.276551) rotate(-23.560000) translate(-34.284205, -17.276551) " x="33.7112051" y="14.4415505" width="1.146" height="5.67"></rect>
                <polygon id="Path" fill="#FFFFFF" points="36.779 19.253 34.985 13.874 36.071 13.511 36.869 15.899 38.267 12.779 39.725 12.29 38.399 15.062 41.63 17.633 40.226 18.104 37.904 16.073 37.325 17.264 37.865 18.89"></polygon>
                <polygon id="Path" fill="#FFFFFF" points="44.021 17.123 43.238 11.507 44.342 11.354 47.162 14.783 46.64 11.033 47.693 10.886 48.476 16.502 47.339 16.661 44.564 13.313 45.074 16.976"></polygon>
                <polygon id="Path" fill="#FFFFFF" points="49.457 16.457 49.364 10.787 53.57 10.718 53.585 11.678 50.525 11.726 50.546 12.986 53.393 12.938 53.408 13.895 50.561 13.94 50.588 15.485 53.753 15.431 53.771 16.388"></polygon>
                <path d="M57.386,14.684 L57.503,13.736 L59.951,14.036 L59.678,16.277 C59.343157,16.509059 58.9660325,16.6731591 58.568,16.76 C58.1098655,16.8779427 57.6339244,16.9104857 57.164,16.856 C56.6233874,16.8040701 56.1060107,16.6105712 55.664,16.295 C55.260471,16.0026683 54.9600664,15.5898745 54.806,15.116 C54.6407532,14.6197867 54.5904864,14.0924978 54.659,13.574 C54.7154777,13.0288996 54.908419,12.5068231 55.22,12.056 C55.5164388,11.6349036 55.9354569,11.3154023 56.42,11.141 C56.8651097,10.9922632 57.3395431,10.9531559 57.803,11.027 C58.3862362,11.0629802 58.9420588,11.2872041 59.387,11.666 C59.7415708,12.0130105 59.9552786,12.4788935 59.987,12.974 L58.832,13.046 C58.7942241,12.7751945 58.6650982,12.5254101 58.466,12.338 C58.2448781,12.1430058 57.9675556,12.0232529 57.674,11.996 C57.2322887,11.922411 56.7802053,12.0414378 56.432,12.323 C56.0673777,12.6801707 55.8527819,13.1630113 55.832,13.673 C55.7261368,14.2064613 55.8189636,14.7602213 56.093,15.23 C56.347002,15.5996999 56.7531225,15.8363283 57.2,15.875 C57.4452288,15.9029916 57.6935334,15.8846741 57.932,15.821 C58.1635062,15.7650567 58.385776,15.6761488 58.592,15.557 L58.679,14.843 L57.386,14.684 Z" id="Path" fill="#FFFFFF"></path>
                <polygon id="Path" fill="#FFFFFF" points="60.377 17.24 61.781 11.744 65.855 12.788 65.618 13.715 62.654 12.959 62.342 14.177 65.102 14.882 64.865 15.806 62.105 15.101 61.724 16.598 64.793 17.381 64.556 18.308"></polygon>
                <path d="M65.27,18.536 L67.331,13.256 L69.578,14.132 C70.0000197,14.2741811 70.3961689,14.4839072 70.751,14.753 C70.9707347,14.94747 71.1177882,15.2108967 71.168,15.5 C71.2278368,15.8104759 71.1955083,16.1316757 71.075,16.424 C70.9468739,16.7894256 70.6839378,17.0920704 70.34,17.27 C69.9510735,17.4406519 69.514331,17.4682804 69.107,17.348 C69.2703336,17.5498064 69.4037066,17.7741156 69.503,18.014 C69.6259213,18.3702921 69.7172731,18.7367033 69.776,19.109 L70.019,20.393 L68.744,19.895 L68.42,18.434 C68.3551072,18.0968875 68.2689348,17.764222 68.162,17.438 C68.1120754,17.3062715 68.0319255,17.1881018 67.928,17.093 C67.7707542,16.9772466 67.5967467,16.8861961 67.412,16.823 L67.196,16.739 L66.335,18.944 L65.27,18.536 Z M67.526,15.905 L68.315,16.205 C68.6303432,16.3425855 68.9605351,16.4432537 69.299,16.505 C69.4364037,16.5128792 69.5725319,16.4748899 69.686,16.397 C69.8084832,16.3091326 69.9007161,16.1854566 69.95,16.043 C70.0184302,15.8896861 70.026992,15.7163101 69.974,15.557 C69.9137051,15.4015961 69.7998596,15.2728549 69.653,15.194 C69.572,15.149 69.314,15.041 68.882,14.873 L68.051,14.546 L67.526,15.905 Z" id="Shape" fill="#FFFFFF"></path>
                <rect id="Rectangle" fill="#FFFFFF" transform="translate(72.120698, 18.358391) rotate(-63.670000) translate(-72.120698, -18.358391) " x="69.2856983" y="17.7853912" width="5.67" height="1.146"></rect>
                <polygon id="Path" fill="#FFFFFF" points="74.003 22.517 77.234 17.855 78.644 18.833 77.285 22.598 80.324 19.997 81.737 20.975 78.506 25.637 77.633 25.031 80.174 21.362 76.706 24.389 75.8 23.762 77.423 19.454 74.879 23.123"></polygon>
                <path d="M82.919,29.708 L82.019,28.856 L82.538,27.578 L80.879,26.03 L79.658,26.654 L78.758,25.823 L84.242,23.186 L85.142,24.011 L82.919,29.708 Z M82.919,26.627 L83.783,24.557 L81.785,25.571 L82.919,26.627 Z" id="Shape" fill="#FFFFFF"></path>
                <polygon id="Path" fill="#FFFFFF" points="83.147 30.041 87.506 26.486 88.229 27.374 84.611 30.326 86.411 32.531 85.67 33.134"></polygon>
                <path d="M88.586,37.991 L87.956,36.914 L88.817,35.837 L87.686,33.881 L86.339,34.13 L85.724,33.08 L91.724,32.117 L92.324,33.161 L88.586,37.991 Z M89.456,35.036 L90.875,33.299 L88.673,33.701 L89.456,35.036 Z" id="Shape" fill="#FFFFFF"></path>
                <polygon id="Path" fill="#FFFFFF" points="88.682 38.279 94.046 36.44 94.409 37.496 91.577 40.919 95.162 39.692 95.504 40.697 90.14 42.536 89.768 41.45 92.525 38.087 89.027 39.287"></polygon>
                <path d="M92.633,45.812 L93.587,45.746 L93.761,48.209 L91.508,48.368 C91.2162015,48.0840099 90.9828136,47.7456484 90.821,47.372 C90.6171931,46.9442151 90.49413,46.4824741 90.458,46.01 C90.4080127,45.4709925 90.4989871,44.9282475 90.722,44.435 C90.9331404,43.9836852 91.2818175,43.6108528 91.718,43.37 C92.1720237,43.1121838 92.6788861,42.9613564 93.2,42.929 C93.7454519,42.8812585 94.2941706,42.9709926 94.796,43.19 C95.2681118,43.4010434 95.6632305,43.7531916 95.927,44.198 C96.1570601,44.6067376 96.2866241,45.0643248 96.305,45.533 C96.3802252,46.1122994 96.2666005,46.7004129 95.981,47.21 C95.7106353,47.6291109 95.2932958,47.9319496 94.811,48.059 L94.511,46.94 C94.7703988,46.85145 94.991666,46.6767654 95.138,46.445 C95.2870751,46.1906613 95.3501961,45.8950442 95.318,45.602 C95.3097556,45.1539481 95.1058749,44.7319369 94.76,44.447 C94.3417362,44.1522931 93.8261092,44.0298316 93.32,44.105 C92.7755272,44.1018434 92.2489834,44.2994308 91.841,44.66 C91.5300234,44.9779549 91.3761773,45.4175153 91.421,45.86 C91.4407561,46.105827 91.5058531,46.3458721 91.613,46.568 C91.7116378,46.7860272 91.8420557,46.9882255 92,47.168 L92.717,47.117 L92.633,45.812 Z" id="Path" fill="#FFFFFF"></path>
                <path d="M74.111,91.742 C72.611,91.616 66.056,87.905 62.588,87.623 C58.67,87.302 52.31,88.709 51.974,88.784 L51.974,94.571 L51.989,94.571 L51.989,94.556 C54.8220419,93.2501573 57.9085941,92.5863385 61.028,92.612 C64.769,92.699 68.774,95.738 71.282,96.596 C73.79,97.454 75.347,97.034 75.347,97.034 L74.111,94.874 L74.111,91.742 Z" id="Path" fill="#FFFFFF"></path>
                <path d="M74.282,97.475 C73.2263183,97.4580243 72.1805176,97.2685236 71.186,96.914 C70.1657828,96.5150353 69.1744123,96.0459136 68.219,95.51 C65.987,94.337 63.455,93.005 61.019,92.948 C57.9810641,92.9294308 54.9751507,93.5690957 52.208,94.823 L52.163,94.856 C52.0669278,94.9155913 51.9471832,94.9223693 51.845,94.874 L51.845,94.874 C51.7291883,94.8195149 51.6563041,94.7019598 51.6589277,94.574 L51.6589277,88.784 C51.6594904,88.6298811 51.7665932,88.4966253 51.917,88.463 C52.19,88.403 58.655,86.963 62.63,87.293 C64.787,87.47 68.03,88.898 70.631,90.047 C72.167,90.728 73.631,91.37 74.153,91.415 C74.3223012,91.4304529 74.4521583,91.5719972 74.453,91.742 L74.453,94.79 L75.653,96.89 C75.7068306,96.9813063 75.7135269,97.0929123 75.671,97.19 C75.6313414,97.284223 75.5506015,97.3550087 75.452,97.382 C75.0672727,97.460744 74.6743359,97.4919774 74.282,97.475 Z M60.686,92.282 C60.896,92.282 61.022,92.282 61.049,92.282 C63.623,92.342 66.341,93.782 68.522,94.919 C69.4487593,95.4390577 70.4100022,95.8951219 71.399,96.284 C72.4960152,96.6864858 73.6648318,96.8560868 74.831,96.782 L73.832,95.036 C73.8044376,94.9864558 73.7899811,94.9306949 73.79,94.874 L73.79,92.015 C73.07,91.844 71.849,91.304 70.358,90.647 C67.799,89.516 64.616,88.112 62.558,87.947 C59.075,87.647 53.558,88.778 52.301,89.048 L52.301,94.049 C54.9499453,92.9059303 57.8010415,92.3051089 60.686,92.282 Z" id="Shape" fill="#231F20"></path>
                <path d="M71.282,96.602 C72.2371033,96.9422408 73.2412523,97.1246292 74.255,97.142 C74.6217896,97.1524114 74.9884835,97.1181597 75.347,97.04 L74.111,94.88 C74.111,94.88 72.551,94.841 68.531,92.75 C62.759,89.75 57.383,90.536 51.974,92.633 L51.974,94.571 L51.986,94.571 L51.986,94.556 C54.7227014,93.2975067 57.6949218,92.6329235 60.707,92.606 C60.911,92.606 61.025,92.606 61.025,92.606 C64.769,92.705 68.786,95.744 71.282,96.602 Z" id="Path" fill="#FFFFFF"></path>
                <path d="M74.282,97.472 L74.255,97.472 C73.2085944,97.4528002 72.1721939,97.2643638 71.186,96.914 C70.1657828,96.5150353 69.1744123,96.0459136 68.219,95.51 C65.987,94.337 63.455,93.005 61.019,92.948 L60.719,92.948 C57.7849686,92.9764039 54.8891863,93.6170728 52.217,94.829 L52.175,94.862 C52.0789278,94.9215913 51.9591832,94.9283693 51.857,94.88 C51.7390322,94.8250921 51.6606964,94.7098924 51.653,94.58 L51.653,92.642 C51.656005,92.5087713 51.7388472,92.3904253 51.863,92.342 C56.285,90.626 62.189,89.09 68.693,92.471 C72.557,94.481 74.114,94.571 74.129,94.571 C74.2433861,94.574424 74.3478326,94.6368648 74.405,94.736 L75.644,96.899 C75.6978306,96.9903063 75.7045269,97.1019123 75.662,97.199 C75.6223414,97.293223 75.5416015,97.3640087 75.443,97.391 C75.0604297,97.4627686 74.6708297,97.4899499 74.282,97.472 L74.282,97.472 Z M60.716,92.282 C60.926,92.282 61.04,92.282 61.04,92.282 C63.614,92.342 66.332,93.782 68.513,94.919 C69.4397593,95.4390577 70.4010022,95.8951219 71.39,96.284 C72.3110578,96.6135321 73.2799005,96.7898695 74.258,96.806 C74.4463028,96.8086898 74.6346064,96.8006769 74.822,96.782 L73.922,95.183 C73.379,95.111 71.699,94.754 68.393,93.038 C62.228,89.831 56.585,91.223 52.319,92.855 L52.319,94.055 C54.9748141,92.9166256 57.8296505,92.3150708 60.719,92.285 L60.716,92.282 Z" id="Shape" fill="#231F20"></path>
                <path d="M29.84,91.742 C31.325,91.616 37.892,87.905 41.36,87.623 C45.281,87.302 51.638,88.709 51.974,88.784 L51.974,94.571 L51.974,94.571 L51.974,94.556 C49.1419699,93.2503065 46.0564258,92.5864842 42.938,92.612 C39.197,92.699 35.192,95.738 32.681,96.596 C30.17,97.454 28.601,97.034 28.601,97.034 L29.84,94.874 L29.84,91.742 Z" id="Path" fill="#FFFFFF"></path>
                <path d="M29.666,97.475 C29.2788071,97.4836138 28.8919948,97.4453355 28.514,97.361 C28.4153985,97.3340087 28.3346586,97.263223 28.295,97.169 C28.2524731,97.0719123 28.2591694,96.9603063 28.313,96.869 L29.513,94.769 L29.513,91.742 C29.5124177,91.5714423 29.6430236,91.4290818 29.813,91.415 C30.344,91.37 31.799,90.728 33.338,90.047 C35.942,88.898 39.182,87.47 41.336,87.293 C45.314,86.966 51.776,88.403 52.049,88.463 C52.2000403,88.4956036 52.3076436,88.6294822 52.3070627,88.784 L52.3070627,94.571 C52.3094808,94.6980651 52.2381149,94.8150583 52.124,94.871 L52.106,94.871 C52.0030166,94.9168337 51.8840619,94.9089782 51.788,94.85 L51.755,94.826 C48.9868316,93.5680903 45.978517,92.9263028 42.938,92.945 C40.508,93.002 37.979,94.334 35.738,95.507 C34.7875205,96.0433153 33.8011797,96.513431 32.786,96.914 C31.7838748,97.2711069 30.7297547,97.4606458 29.666,97.475 Z M29.126,96.788 C30.2932048,96.863482 31.4632872,96.6938456 32.561,96.29 C33.5489967,95.9010482 34.5092369,95.4449842 35.435,94.925 C37.619,93.776 40.334,92.348 42.914,92.288 C45.9156398,92.2558596 48.8903323,92.8569315 51.644,94.052 L51.644,89.051 C50.375,88.781 44.876,87.665 41.387,87.95 C39.344,88.118 36.158,89.522 33.602,90.65 C32.102,91.307 30.887,91.85 30.17,92.018 L30.17,94.877 C30.170748,94.9341854 30.1551347,94.9903931 30.125,95.039 L29.126,96.788 Z" id="Shape" fill="#231F20"></path>
                <path d="M32.666,96.602 C31.7108967,96.9422408 30.7067477,97.1246292 29.693,97.142 C29.3262191,97.1521452 28.9595572,97.1178965 28.601,97.04 L29.84,94.88 C29.84,94.88 31.397,94.841 35.417,92.75 C41.189,89.75 46.565,90.536 51.974,92.633 L51.974,94.571 L51.974,94.571 L51.974,94.556 C49.2383361,93.297574 46.2671069,92.6329838 43.256,92.606 C43.049,92.606 42.938,92.606 42.938,92.606 C39.182,92.705 35.186,95.744 32.666,96.602 Z" id="Path" fill="#FFFFFF"></path>
                <path d="M29.666,97.472 C29.2790219,97.479093 28.8925043,97.4418505 28.514,97.361 C28.4153985,97.3340087 28.3346586,97.263223 28.295,97.169 C28.2524731,97.0719123 28.2591694,96.9603063 28.313,96.869 L29.552,94.706 C29.6139023,94.5998664 29.7292178,94.5364429 29.852,94.541 C29.852,94.541 31.412,94.457 35.276,92.441 C41.78,89.06 47.687,90.596 52.106,92.312 C52.2301528,92.3604253 52.312995,92.4787713 52.3160192,92.612 L52.3160192,94.55 C52.3173894,94.6784412 52.2434534,94.7957998 52.127,94.85 L52.127,94.85 C52.0243143,94.8974701 51.9045516,94.8895613 51.809,94.829 L51.773,94.802 C49.0990513,93.588645 46.201221,92.9469534 43.265,92.918 L42.965,92.918 C40.535,92.975 38.006,94.307 35.765,95.48 C34.8065422,96.0266689 33.8111275,96.5058313 32.786,96.914 C31.7960544,97.2658458 30.7554641,97.4543071 29.705,97.472 L29.666,97.472 Z M29.126,96.788 C29.279,96.803 29.465,96.812 29.693,96.812 C30.6710729,96.7955999 31.6398721,96.6192703 32.561,96.29 C33.5489967,95.9010482 34.5092369,95.4449842 35.435,94.925 C37.619,93.776 40.334,92.348 42.914,92.288 C42.914,92.288 43.034,92.288 43.241,92.288 C46.1303495,92.3180708 48.9851859,92.9196256 51.641,94.058 L51.641,92.858 C47.375,91.226 41.741,89.834 35.567,93.041 C32.267,94.757 30.581,95.114 30.038,95.186 L29.126,96.788 Z" id="Shape" fill="#231F20"></path>
            </g>
        </g>
    </g>
</svg>